# xmcd CD database file
#
# Track frame offsets:
#	150
#	13799
#	25947
#	37513
#	49616
#	62436
#	84427
#	102267
#	117352
#	135551
#	161737
#	181985
#	209840
#	238669
#	253149
#	264329
#	277232
#	292461
#
# Disc length: 4049 seconds
#
# Revision: 0
# Processed by: cddbd v1.5.2PL0 Copyright (c) Steve Scherf et al.
# Submitted via: CDex 1.51
#
DISCID=080fcf12
DTITLE=no_artist - MusiCS
DYEAR=2006
DGENRE=Jazz
TTITLE0=Marilyn Monroe - I Wanna Be Loved By You
TTITLE1=Ray Charles - Move It On Over
TTITLE2=The Platters - 16 Tons
TTITLE3=Frank Sinatra - One Finger Melody
TTITLE4=Arielle Dombasle - Rhum and Coca-Cola
TTITLE5=Ella Fitzgerald and Duke Ellington - Imagine My Frustration
TTITLE6=Erroll Garner - The Shadow Of Yiur Smile
TTITLE7=Glenn Miller - Pensylvania 6-5000
TTITLE8=Ben Webster and Bill Coleman - But Not For Me
TTITLE9=Erroll Garner - Eldorado
TTITLE10=Louis Armstrong - Loveless Love
TTITLE11=Stan Getz and Charlie Byrd - Samba De Uma Nota So
TTITLE12=Ben Webster and Bill Coleman - For Max
TTITLE13=Frank Sinatra - All My Tomorrows
TTITLE14=Dinah Washington - Cry Me A River
TTITLE15=Ella Fitzgerald - Summertime
TTITLE16=Peggy Lee - Fever
TTITLE17=Astrud Gilberto - Aruanda
EXTD=YEAR: 2006
EXTT0=
EXTT1=
EXTT2=
EXTT3=
EXTT4=
EXTT5=
EXTT6=
EXTT7=
EXTT8=
EXTT9=
EXTT10=
EXTT11=
EXTT12=
EXTT13=
EXTT14=
EXTT15=
EXTT16=
EXTT17=
PLAYORDER=
